<svg width="26" height="30" viewBox="0 0 26 30" fill="none" xmlns="http://www.w3.org/2000/svg">
<path d="M19.0233 25.4333C18.8501 25.4341 18.6792 25.3884 18.525 25.3001L13 22.0664L7.47499 25.3001C7.29558 25.4056 7.0933 25.4527 6.89115 25.436C6.689 25.4193 6.49509 25.3396 6.33145 25.2059C6.16781 25.0721 6.04102 24.8898 5.96549 24.6795C5.88995 24.4692 5.8687 24.2394 5.90415 24.0163L6.98749 17.1978L2.52415 12.3533C2.3849 12.198 2.28611 12.0032 2.2384 11.7898C2.19069 11.5764 2.19584 11.3526 2.25332 11.1422C2.31611 10.927 2.43161 10.7357 2.58672 10.5901C2.74182 10.4446 2.93032 10.3505 3.13082 10.3187L9.30582 9.31344L12.025 3.10044C12.1137 2.89568 12.2522 2.72299 12.4246 2.60216C12.5971 2.48133 12.7965 2.41724 13 2.41724C13.2035 2.41724 13.4029 2.48133 13.5753 2.60216C13.7478 2.72299 13.8863 2.89568 13.975 3.10044L16.7267 9.30133L22.9017 10.3066C23.1022 10.3384 23.2907 10.4325 23.4458 10.578C23.6009 10.7236 23.7164 10.9149 23.7792 11.1301C23.8366 11.3404 23.8418 11.5643 23.7941 11.7777C23.7464 11.991 23.6476 12.1859 23.5083 12.3412L19.045 17.1857L20.1283 24.0042C20.167 24.2313 20.1467 24.466 20.07 24.6806C19.9932 24.8952 19.8631 25.0807 19.695 25.2153C19.4988 25.369 19.2626 25.4457 19.0233 25.4333ZM13 19.4989C13.1736 19.494 13.3454 19.5399 13.4983 19.6321L17.5825 22.0543L16.8025 16.9555C16.7722 16.7609 16.785 16.5609 16.8398 16.373C16.8946 16.1851 16.9896 16.015 17.1167 15.8777L20.3667 12.3291L15.8167 11.5782C15.6498 11.5407 15.4932 11.4597 15.3596 11.3419C15.2259 11.224 15.119 11.0726 15.0475 10.9L13 6.35833L10.9525 10.9C10.8741 11.074 10.7593 11.2244 10.6179 11.3382C10.4764 11.4521 10.3125 11.5261 10.14 11.554L5.58999 12.3049L8.83999 15.8534C8.96704 15.9908 9.06209 16.1609 9.11685 16.3488C9.17161 16.5366 9.18442 16.7366 9.15415 16.9313L8.37415 21.9695L12.4583 19.5473C12.6314 19.4754 12.8189 19.4586 13 19.4989Z" fill="#30714B"/>
</svg>
