<svg width="46" height="44" viewBox="0 0 46 44" fill="none" xmlns="http://www.w3.org/2000/svg">
<path d="M3 3H6.59611C8.82816 3 10.5849 4.767 10.3988 6.8L8.68347 25.724C8.39413 28.821 11.0602 31.481 14.4496 31.481H36.4602C39.4362 31.481 42.0403 29.239 42.2676 26.522L43.3837 12.272C43.6317 9.118 41.0276 6.553 37.5762 6.553H10.8949" stroke="#30714B" stroke-width="5" stroke-miterlimit="10" stroke-linecap="round" stroke-linejoin="round"/>
<path opacity="0.4" d="M32.4508 41C33.8777 41 35.0342 39.9368 35.0342 38.625C35.0342 37.3132 33.8777 36.25 32.4508 36.25C31.024 36.25 29.8674 37.3132 29.8674 38.625C29.8674 39.9368 31.024 41 32.4508 41Z" stroke="#30714B" stroke-width="5" stroke-miterlimit="10" stroke-linecap="round" stroke-linejoin="round"/>
<path opacity="0.4" d="M15.9169 41C17.3437 41 18.5003 39.9368 18.5003 38.625C18.5003 37.3132 17.3437 36.25 15.9169 36.25C14.4901 36.25 13.3335 37.3132 13.3335 38.625C13.3335 39.9368 14.4901 41 15.9169 41Z" stroke="#30714B" stroke-width="5" stroke-miterlimit="10" stroke-linecap="round" stroke-linejoin="round"/>
<path opacity="0.4" d="M17.467 14.4H42.2676" stroke="#30714B" stroke-width="5" stroke-miterlimit="10" stroke-linecap="round" stroke-linejoin="round"/>
</svg>
