<svg width="108" height="33" viewBox="0 0 108 33" fill="none" xmlns="http://www.w3.org/2000/svg">
<path d="M20.4869 25.4333C20.3003 25.4341 20.1163 25.3884 19.9502 25.3001L14.0002 22.0664L8.05021 25.3001C7.857 25.4056 7.63917 25.4526 7.42147 25.436C7.20377 25.4193 6.99494 25.3396 6.81871 25.2059C6.64249 25.0721 6.50594 24.8898 6.42459 24.6795C6.34325 24.4692 6.32036 24.2394 6.35854 24.0163L7.52521 17.1978L2.71854 12.3533C2.56858 12.198 2.46219 12.0032 2.41081 11.7898C2.35943 11.5764 2.36498 11.3526 2.42688 11.1422C2.4945 10.927 2.61888 10.7357 2.78592 10.5901C2.95296 10.4446 3.15595 10.3505 3.37188 10.3187L10.0219 9.31343L12.9502 3.10044C13.0457 2.89567 13.1949 2.72298 13.3806 2.60215C13.5663 2.48132 13.781 2.41724 14.0002 2.41724C14.2194 2.41724 14.4341 2.48132 14.6198 2.60215C14.8055 2.72298 14.9547 2.89567 15.0502 3.10044L18.0135 9.30132L24.6635 10.3065C24.8795 10.3384 25.0825 10.4325 25.2495 10.578C25.4165 10.7236 25.5409 10.9149 25.6085 11.1301C25.6704 11.3404 25.676 11.5643 25.6246 11.7777C25.5732 11.991 25.4668 12.1859 25.3169 12.3412L20.5102 17.1857L21.6769 24.0042C21.7185 24.2313 21.6967 24.466 21.614 24.6806C21.5313 24.8952 21.3912 25.0807 21.2102 25.2153C20.9989 25.369 20.7446 25.4457 20.4869 25.4333Z" fill="#30714B"/>
<path d="M48.4869 25.4333C48.3003 25.4341 48.1163 25.3884 47.9502 25.3001L42.0002 22.0664L36.0502 25.3001C35.857 25.4056 35.6392 25.4526 35.4215 25.436C35.2038 25.4193 34.9949 25.3396 34.8187 25.2059C34.6425 25.0721 34.5059 24.8898 34.4246 24.6795C34.3432 24.4692 34.3204 24.2394 34.3585 24.0163L35.5252 17.1978L30.7185 12.3533C30.5686 12.198 30.4622 12.0032 30.4108 11.7898C30.3594 11.5764 30.365 11.3526 30.4269 11.1422C30.4945 10.927 30.6189 10.7357 30.7859 10.5901C30.953 10.4446 31.156 10.3505 31.3719 10.3187L38.0219 9.31343L40.9502 3.10044C41.0457 2.89567 41.1949 2.72298 41.3806 2.60215C41.5663 2.48132 41.781 2.41724 42.0002 2.41724C42.2194 2.41724 42.4341 2.48132 42.6198 2.60215C42.8055 2.72298 42.9547 2.89567 43.0502 3.10044L46.0135 9.30132L52.6635 10.3065C52.8795 10.3384 53.0825 10.4325 53.2495 10.578C53.4165 10.7236 53.5409 10.9149 53.6085 11.1301C53.6704 11.3404 53.676 11.5643 53.6246 11.7777C53.5732 11.991 53.4668 12.1859 53.3169 12.3412L48.5102 17.1857L49.6769 24.0042C49.7185 24.2313 49.6967 24.466 49.614 24.6806C49.5313 24.8952 49.3912 25.0807 49.2102 25.2153C48.9989 25.369 48.7446 25.4457 48.4869 25.4333Z" fill="#30714B"/>
<path d="M76.4869 25.4333C76.3003 25.4341 76.1163 25.3884 75.9502 25.3001L70.0002 22.0664L64.0502 25.3001C63.857 25.4056 63.6392 25.4526 63.4215 25.436C63.2038 25.4193 62.9949 25.3396 62.8187 25.2059C62.6425 25.0721 62.5059 24.8898 62.4246 24.6795C62.3432 24.4692 62.3204 24.2394 62.3585 24.0163L63.5252 17.1978L58.7185 12.3533C58.5686 12.198 58.4622 12.0032 58.4108 11.7898C58.3594 11.5764 58.365 11.3526 58.4269 11.1422C58.4945 10.927 58.6189 10.7357 58.7859 10.5901C58.953 10.4446 59.156 10.3505 59.3719 10.3187L66.0219 9.31343L68.9502 3.10044C69.0457 2.89567 69.1949 2.72298 69.3806 2.60215C69.5663 2.48132 69.781 2.41724 70.0002 2.41724C70.2194 2.41724 70.4341 2.48132 70.6198 2.60215C70.8055 2.72298 70.9547 2.89567 71.0502 3.10044L74.0135 9.30132L80.6635 10.3065C80.8795 10.3384 81.0825 10.4325 81.2495 10.578C81.4165 10.7236 81.5409 10.9149 81.6085 11.1301C81.6704 11.3404 81.676 11.5643 81.6246 11.7777C81.5732 11.991 81.4668 12.1859 81.3169 12.3412L76.5102 17.1857L77.6769 24.0042C77.7185 24.2313 77.6967 24.466 77.614 24.6806C77.5313 24.8952 77.3912 25.0807 77.2102 25.2153C76.9989 25.369 76.7446 25.4457 76.4869 25.4333Z" fill="#30714B"/>
<path d="M100.817 27.0161C100.644 27.0169 100.473 26.9712 100.319 26.8829L94.7939 23.6492L89.2689 26.8829C89.0895 26.9883 88.8872 27.0354 88.6851 27.0188C88.4829 27.0021 88.289 26.9224 88.1254 26.7886C87.9618 26.6549 87.835 26.4725 87.7594 26.2622C87.6839 26.052 87.6626 25.8222 87.6981 25.5991L88.7814 18.7805L84.3181 13.9361C84.1788 13.7807 84.0801 13.5859 84.0323 13.3725C83.9846 13.1592 83.9898 12.9353 84.0473 12.725C84.1101 12.5097 84.2256 12.3185 84.3807 12.1729C84.5358 12.0273 84.7243 11.9333 84.9248 11.9014L91.0998 10.8962L93.8189 4.6832C93.9076 4.47844 94.0461 4.30575 94.2186 4.18492C94.391 4.06409 94.5904 4 94.7939 4C94.9974 4 95.1968 4.06409 95.3693 4.18492C95.5417 4.30575 95.6802 4.47844 95.7689 4.6832L98.5206 10.8841L104.696 11.8893C104.896 11.9212 105.085 12.0152 105.24 12.1608C105.395 12.3064 105.51 12.4976 105.573 12.7129C105.631 12.9232 105.636 13.1471 105.588 13.3604C105.54 13.5738 105.442 13.7686 105.302 13.924L100.839 18.7684L101.922 25.587C101.961 25.814 101.941 26.0487 101.864 26.2633C101.787 26.4779 101.657 26.6635 101.489 26.7981C101.293 26.9518 101.057 27.0284 100.817 27.0161ZM94.7939 21.0816C94.9676 21.0767 95.1394 21.1227 95.2923 21.2149L99.3764 23.6371L98.5964 18.5383C98.5662 18.3436 98.579 18.1436 98.6337 17.9557C98.6885 17.7678 98.7836 17.5978 98.9106 17.4604L102.161 13.9119L97.6106 13.161C97.4437 13.1234 97.2872 13.0424 97.1535 12.9246C97.0199 12.8068 96.913 12.6554 96.8414 12.4828L94.7939 7.94109L92.7464 12.4828C92.6681 12.6568 92.5533 12.8071 92.4118 12.921C92.2704 13.0348 92.1064 13.1089 91.9339 13.1368L87.3839 13.8876L90.6339 17.4362C90.761 17.5736 90.856 17.7436 90.9108 17.9315C90.9656 18.1194 90.9784 18.3194 90.9481 18.5141L90.1681 23.5523L94.2523 21.1301C94.4253 21.0582 94.6128 21.0414 94.7939 21.0816Z" fill="#30714B"/>
</svg>
