<svg width="108" height="33" viewBox="0 0 108 33" fill="none" xmlns="http://www.w3.org/2000/svg">
<path d="M20.4866 25.4333C20.3001 25.4341 20.116 25.3884 19.95 25.3001L14 22.0664L8.04997 25.3001C7.85676 25.4056 7.63892 25.4527 7.42122 25.436C7.20352 25.4193 6.99469 25.3396 6.81847 25.2059C6.64224 25.0721 6.5057 24.8898 6.42435 24.6795C6.343 24.4692 6.32012 24.2394 6.3583 24.0163L7.52497 17.1978L2.7183 12.3533C2.56833 12.198 2.46195 12.0032 2.41057 11.7898C2.35918 11.5764 2.36474 11.3526 2.42663 11.1422C2.49425 10.927 2.61864 10.7357 2.78568 10.5901C2.95271 10.4446 3.15571 10.3505 3.37163 10.3187L10.0216 9.31344L12.95 3.10044C13.0455 2.89568 13.1947 2.72299 13.3804 2.60216C13.5661 2.48133 13.7808 2.41724 14 2.41724C14.2191 2.41724 14.4339 2.48133 14.6196 2.60216C14.8053 2.72299 14.9544 2.89568 15.05 3.10044L18.0133 9.30133L24.6633 10.3066C24.8792 10.3384 25.0822 10.4325 25.2493 10.578C25.4163 10.7236 25.5407 10.9149 25.6083 11.1301C25.6702 11.3404 25.6758 11.5643 25.6244 11.7777C25.573 11.991 25.4666 12.1859 25.3166 12.3412L20.51 17.1857L21.6766 24.0042C21.7183 24.2313 21.6965 24.466 21.6138 24.6806C21.5311 24.8952 21.391 25.0807 21.21 25.2153C20.9987 25.369 20.7443 25.4457 20.4866 25.4333Z" fill="#30714B"/>
<path d="M48.4866 25.4333C48.3001 25.4341 48.116 25.3884 47.95 25.3001L42 22.0664L36.05 25.3001C35.8568 25.4056 35.6389 25.4527 35.4212 25.436C35.2035 25.4193 34.9947 25.3396 34.8185 25.2059C34.6422 25.0721 34.5057 24.8898 34.4244 24.6795C34.343 24.4692 34.3201 24.2394 34.3583 24.0163L35.525 17.1978L30.7183 12.3533C30.5683 12.198 30.462 12.0032 30.4106 11.7898C30.3592 11.5764 30.3647 11.3526 30.4266 11.1422C30.4943 10.927 30.6186 10.7357 30.7857 10.5901C30.9527 10.4446 31.1557 10.3505 31.3716 10.3187L38.0216 9.31344L40.95 3.10044C41.0455 2.89568 41.1947 2.72299 41.3804 2.60216C41.5661 2.48133 41.7808 2.41724 42 2.41724C42.2191 2.41724 42.4339 2.48133 42.6196 2.60216C42.8053 2.72299 42.9544 2.89568 43.05 3.10044L46.0133 9.30133L52.6633 10.3066C52.8792 10.3384 53.0822 10.4325 53.2493 10.578C53.4163 10.7236 53.5407 10.9149 53.6083 11.1301C53.6702 11.3404 53.6758 11.5643 53.6244 11.7777C53.573 11.991 53.4666 12.1859 53.3166 12.3412L48.51 17.1857L49.6766 24.0042C49.7183 24.2313 49.6965 24.466 49.6138 24.6806C49.5311 24.8952 49.391 25.0807 49.21 25.2153C48.9987 25.369 48.7443 25.4457 48.4866 25.4333Z" fill="#30714B"/>
<path d="M76.4866 25.4333C76.3001 25.4341 76.116 25.3884 75.95 25.3001L70 22.0664L64.05 25.3001C63.8568 25.4056 63.6389 25.4527 63.4212 25.436C63.2035 25.4193 62.9947 25.3396 62.8185 25.2059C62.6422 25.0721 62.5057 24.8898 62.4244 24.6795C62.343 24.4692 62.3201 24.2394 62.3583 24.0163L63.525 17.1978L58.7183 12.3533C58.5683 12.198 58.462 12.0032 58.4106 11.7898C58.3592 11.5764 58.3647 11.3526 58.4266 11.1422C58.4943 10.927 58.6186 10.7357 58.7857 10.5901C58.9527 10.4446 59.1557 10.3505 59.3716 10.3187L66.0216 9.31344L68.95 3.10044C69.0455 2.89568 69.1947 2.72299 69.3804 2.60216C69.5661 2.48133 69.7808 2.41724 70 2.41724C70.2191 2.41724 70.4339 2.48133 70.6196 2.60216C70.8053 2.72299 70.9544 2.89568 71.05 3.10044L74.0133 9.30133L80.6633 10.3066C80.8792 10.3384 81.0822 10.4325 81.2493 10.578C81.4163 10.7236 81.5407 10.9149 81.6083 11.1301C81.6702 11.3404 81.6758 11.5643 81.6244 11.7777C81.573 11.991 81.4666 12.1859 81.3166 12.3412L76.51 17.1857L77.6766 24.0042C77.7183 24.2313 77.6965 24.466 77.6138 24.6806C77.5311 24.8952 77.391 25.0807 77.21 25.2153C76.9987 25.369 76.7443 25.4457 76.4866 25.4333Z" fill="#30714B"/>
<path d="M100.817 27.0161C100.644 27.0169 100.473 26.9712 100.319 26.8829L94.7939 23.6492L89.2689 26.8829C89.0895 26.9883 88.8872 27.0354 88.6851 27.0188C88.4829 27.0021 88.289 26.9224 88.1254 26.7886C87.9618 26.6549 87.835 26.4725 87.7594 26.2622C87.6839 26.052 87.6626 25.8222 87.6981 25.5991L88.7814 18.7805L84.3181 13.9361C84.1788 13.7807 84.0801 13.5859 84.0323 13.3725C83.9846 13.1592 83.9898 12.9353 84.0473 12.725C84.1101 12.5097 84.2256 12.3185 84.3807 12.1729C84.5358 12.0273 84.7243 11.9333 84.9248 11.9014L91.0998 10.8962L93.8189 4.6832C93.9076 4.47844 94.0461 4.30575 94.2186 4.18492C94.391 4.06409 94.5904 4 94.7939 4C94.9974 4 95.1968 4.06409 95.3693 4.18492C95.5417 4.30575 95.6802 4.47844 95.7689 4.6832L98.5206 10.8841L104.696 11.8893C104.896 11.9212 105.085 12.0152 105.24 12.1608C105.395 12.3064 105.51 12.4976 105.573 12.7129C105.631 12.9232 105.636 13.1471 105.588 13.3604C105.54 13.5738 105.442 13.7686 105.302 13.924L100.839 18.7684L101.922 25.587C101.961 25.814 101.941 26.0487 101.864 26.2633C101.787 26.4779 101.657 26.6635 101.489 26.7981C101.293 26.9518 101.057 27.0284 100.817 27.0161ZM94.7939 21.0816C94.9676 21.0767 95.1394 21.1227 95.2923 21.2149L99.3764 23.6371L98.5964 18.5383C98.5662 18.3436 98.579 18.1436 98.6337 17.9557C98.6885 17.7678 98.7836 17.5978 98.9106 17.4604L102.161 13.9119L97.6106 13.161C97.4437 13.1234 97.2872 13.0424 97.1535 12.9246C97.0199 12.8068 96.913 12.6554 96.8414 12.4828L94.7939 7.94109L92.7464 12.4828C92.6681 12.6568 92.5533 12.8071 92.4118 12.921C92.2704 13.0348 92.1064 13.1089 91.9339 13.1368L87.3839 13.8876L90.6339 17.4362C90.761 17.5736 90.856 17.7436 90.9108 17.9315C90.9656 18.1194 90.9784 18.3194 90.9481 18.5141L90.1681 23.5523L94.2523 21.1301C94.4253 21.0582 94.6128 21.0414 94.7939 21.0816Z" fill="#30714B"/>
</svg>
