<svg width="35" height="31" viewBox="0 0 35 31" fill="none" xmlns="http://www.w3.org/2000/svg">
<path opacity="0.4" d="M26.2509 31H8.14018C1.06126 31 -0.471502 27.9971 0.113367 24.3219L1.92846 13.1171C2.39232 10.2188 3.07804 7.84338 9.93513 7.84338H24.456C31.313 7.84338 31.9987 10.2188 32.4626 13.1171L33.9752 22.4545L34.2777 24.3219C34.2979 24.4415 34.3181 24.561 34.3382 24.6805C34.7617 28.1913 33.108 31 26.2509 31Z" fill="#30714B"/>
<path d="M25.2612 11.2048C24.4343 11.2048 23.7486 10.6969 23.7486 10.0843V4.85542C23.7486 3.24193 22.3973 2.24096 20.2192 2.24096H14.1688C11.9907 2.24096 10.6394 3.24193 10.6394 4.85542V10.0843C10.6394 10.6969 9.95373 11.2048 9.12685 11.2048C8.29997 11.2048 7.61426 10.6969 7.61426 10.0843V4.85542C7.61426 2.00193 10.3168 0 14.1688 0H20.2192C24.0712 0 26.7737 2.00193 26.7737 4.85542V10.0843C26.7737 10.6969 26.088 11.2048 25.2612 11.2048Z" fill="#30714B"/>
<path d="M34.3367 24.6805C34.2762 24.6954 34.2157 24.6954 34.1552 24.6954H9.12685C8.29997 24.6954 7.61426 24.1875 7.61426 23.5749C7.61426 22.9475 8.29997 22.4545 9.12685 22.4545H33.9737L34.2762 24.3219C34.2964 24.4415 34.3165 24.561 34.3367 24.6805Z" fill="#30714B"/>
</svg>
